<svg xmlns="http://www.w3.org/2000/svg" viewBox="0 0 64 64"><g id="_19-Vote" data-name="19-Vote"><polygon points="39.76 27 41.28 23 48 23 51 31 13 31 16 23 22.71 23 33 27 39.76 27" style="fill:#cfbce0"/><polygon points="28 1 20 22 22.71 23 33 27 39.76 27 41.28 23 47 8 28 1" style="fill:#f0f0f0"/><path d="M37,48a2.006,2.006,0,0,0-2-2H34V44.45a4,4,0,1,0-4,0V46H29a2,2,0,0,0,0,4h1v5a2,2,0,0,0,4,0V50h1A2.006,2.006,0,0,0,37,48ZM49,63H15a2.006,2.006,0,0,1-2-2V31H51V61A2.006,2.006,0,0,1,49,63Z" style="fill:#795799"/><path d="M35,46a2,2,0,0,1,0,4H34v5a2,2,0,0,1-4,0V50H29a2,2,0,0,1,0-4h1V44.45a4,4,0,1,1,4,0V46Z" style="fill:#f0f0f0"/><path d="M49,58H34c-8.612,0-15-5.982-15-14.594V31H13V61a2.006,2.006,0,0,0,2,2H49a2.006,2.006,0,0,0,2-2V56A2,2,0,0,1,49,58Z" style="fill:#573875"/><rect x="46" y="55" width="2" height="2" style="fill:#f0f0f0"/><rect x="46" y="58" width="2" height="2" style="fill:#f0f0f0"/><rect x="43" y="58" width="2" height="2" style="fill:#f0f0f0"/><polygon points="33 27 22.71 23 16 23 25 27 33 27" style="fill:#9988be"/><path d="M27.827,10.911l3.636-8.635L28,1,20,22l2.71,1L33,27h6.76l.034-.09-6.759-2.957A10,10,0,0,1,27.827,10.911Z" style="fill:#e0e0e0"/><rect x="39.106" y="6.99" width="2.001" height="6.175" rx="1" transform="translate(16.665 44.145) rotate(-69.573)" style="fill:#795799"/><rect x="37.702" y="10.938" width="2.001" height="6.175" rx="1" transform="translate(12.051 45.399) rotate(-69.573)" style="fill:#795799"/><rect x="36.297" y="14.886" width="2.001" height="6.175" rx="1" transform="translate(7.437 46.654) rotate(-69.573)" style="fill:#795799"/><rect x="34.893" y="18.835" width="2.001" height="6.175" rx="1" transform="translate(2.823 47.908) rotate(-69.573)" style="fill:#795799"/><path d="M35.625,7.31a4,4,0,1,0-5.855,5l-.651,1.465-1.747-.7a1,1,0,0,0-.744,1.858l1.678.671-2.22,4.994a1,1,0,0,0,1.828.812l2.25-5.063,1.464.586a1,1,0,0,0,.744-1.858l-1.395-.558.685-1.542c.114.01.227.03.34.03A4,4,0,0,0,35.625,7.31ZM33.879,9.684h0a2,2,0,1,1-.066-1.529A2,2,0,0,1,33.878,9.684Z" style="fill:#795799"/><path d="M27.2,13.041a.983.983,0,0,0-1.133.588,1,1,0,0,0,.557,1.3l.428.171A9.936,9.936,0,0,1,27.2,13.041Z" style="fill:#573875"/><path d="M28.242,7.633a3.959,3.959,0,0,0-.074,2.469L30.107,5.5A3.959,3.959,0,0,0,28.242,7.633Z" style="fill:#573875"/><path d="M26.086,20.594a1,1,0,0,0,1.828.812l.615-1.383a10.029,10.029,0,0,1-1.093-2.465Z" style="fill:#573875"/><rect x="20" y="26" width="24" height="2" rx="1" style="fill:#573875"/><circle cx="32" cy="41" r="1" style="fill:#795799"/></g></svg>