<svg xmlns="http://www.w3.org/2000/svg" viewBox="0 0 64 64"><defs><style>.cls-1{fill:#afb4c8;}.cls-2{fill:#e1e4ed;}.cls-3{fill:#ade1fa;}.cls-4{fill:#cdd2e1;}.cls-5{fill:#8ed8f8;}.cls-6{fill:#d4effc;}.cls-7{fill:#99a1b1;}.cls-8{fill:#f26973;}.cls-9{fill:#e65263;}.cls-10{fill:#5ce0bf;}.cls-11{fill:#4fd3b2;}.cls-12{fill:#393045;}</style></defs><title>11-rate</title><g id="_11-rate" data-name="11-rate"><polygon class="cls-1" points="41 47 43 55 21 55 23 47 41 47"/><path class="cls-2" d="M46,55a2.006,2.006,0,0,1,2,2,2.015,2.015,0,0,1-2,2H18a2.006,2.006,0,0,1-2-2,2.015,2.015,0,0,1,2-2H46Z"/><path class="cls-2" d="M63,41v2a4,4,0,0,1-4,4H5a4,4,0,0,1-4-4V41Z"/><path class="cls-3" d="M63,9V41H1V9A4,4,0,0,1,5,5H59A4,4,0,0,1,63,9Z"/><path class="cls-4" d="M7,43V41H1v2a4,4,0,0,0,4,4h6A4,4,0,0,1,7,43Z"/><path class="cls-5" d="M11,5H5A4,4,0,0,0,1,9V41H7V9A4,4,0,0,1,11,5Z"/><path class="cls-4" d="M57,43V41h6v2a4,4,0,0,1-4,4H53A4,4,0,0,0,57,43Z"/><path class="cls-6" d="M53,5h6a4,4,0,0,1,4,4V41H57V9A4,4,0,0,0,53,5Z"/><polygon class="cls-7" points="41 47 23 47 22 51 42 51 41 47"/><path class="cls-4" d="M18,59H46a2.015,2.015,0,0,0,2-2H16A2.006,2.006,0,0,0,18,59Z"/><circle class="cls-8" cx="18" cy="23" r="11"/><path class="cls-9" d="M18,12A11,11,0,0,0,7.44,19.94,10.982,10.982,0,0,1,21.06,33.56,11,11,0,0,0,18,12Z"/><circle class="cls-10" cx="46" cy="23" r="11"/><path class="cls-11" d="M46,12a11,11,0,0,0-10.56,7.94A10.982,10.982,0,0,1,49.06,33.56,11,11,0,0,0,46,12Z"/><path class="cls-12" d="M59,4H5A5.006,5.006,0,0,0,0,9V43a5.006,5.006,0,0,0,5,5H21.719l-1.5,6H18a3,3,0,0,0,0,6H46a3,3,0,0,0,0-6H43.781l-1.5-6H59a5.006,5.006,0,0,0,5-5V9A5.006,5.006,0,0,0,59,4ZM5,6H59a3,3,0,0,1,3,3V40H2V9A3,3,0,0,1,5,6ZM47,57a1,1,0,0,1-1,1H18a1,1,0,0,1,0-2H46A1,1,0,0,1,47,57Zm-5.281-3H22.281l1.5-6H40.219ZM59,46H5a3,3,0,0,1-3-3V42H62v1A3,3,0,0,1,59,46Z"/><path class="cls-12" d="M46,35A12,12,0,1,0,34,23,12.013,12.013,0,0,0,46,35Zm0-22A10,10,0,1,1,36,23,10.011,10.011,0,0,1,46,13Z"/><path class="cls-12" d="M46,30a7.008,7.008,0,0,0,7-7H51a5,5,0,0,1-10,0H39A7.008,7.008,0,0,0,46,30Z"/><path class="cls-12" d="M18,35A12,12,0,1,0,6,23,12.013,12.013,0,0,0,18,35Zm0-22A10,10,0,1,1,8,23,10.011,10.011,0,0,1,18,13Z"/><path class="cls-12" d="M18,24a5.006,5.006,0,0,1,5,5h2a7,7,0,0,0-14,0h2A5.006,5.006,0,0,1,18,24Z"/><rect class="cls-12" x="12" y="19" width="4" height="2"/><rect class="cls-12" x="20" y="19" width="4" height="2"/><rect class="cls-12" x="40" y="19" width="4" height="2"/><rect class="cls-12" x="48" y="19" width="4" height="2"/></g></svg>